<svg width="12" height="12" viewBox="0 0 12 12" fill="none" xmlns="http://www.w3.org/2000/svg">
<path d="M11.8498 5.85484C12.0674 5.60772 12.0464 5.22897 11.8029 5.00908L6.4399 0.161935C6.19647 -0.0579491 5.8062 -0.0533429 5.56789 0.172319L0.186637 5.26751C-0.0516663 5.49318 -0.0633624 5.87145 0.160741 6.11206L0.295657 6.25719C0.519486 6.49781 0.881283 6.52649 1.10323 6.32107L1.5054 5.94907V11.3953C1.5054 11.7295 1.76753 12 2.09079 12H4.18842C4.51169 12 4.77381 11.7295 4.77381 11.3953V7.58515H7.44936V11.3953C7.44471 11.7292 7.67601 11.9998 7.99927 11.9998H10.2222C10.5455 11.9998 10.8076 11.7292 10.8076 11.3951V6.02575C10.8076 6.02575 10.9187 6.12628 11.0557 6.25069C11.1925 6.37485 11.4799 6.2753 11.6974 6.02794L11.8498 5.85484Z" fill="#D31342"/>
</svg>
