<svg width="24" height="24" viewBox="0 0 24 24" fill="none" xmlns="http://www.w3.org/2000/svg">
<path d="M6.39244 4.95917C7.71836 3.90325 9.31549 3.24319 11 3.05493V12.9999H20.945C20.7567 14.6844 20.0967 16.2816 19.0408 17.6075C17.9849 18.9334 16.576 19.9342 14.9764 20.4948C13.3768 21.0553 11.6514 21.1528 9.99877 20.776C8.34618 20.3992 6.83357 19.5635 5.63502 18.3649C4.43648 17.1664 3.60071 15.6538 3.22391 14.0012C2.84711 12.3486 2.9446 10.6232 3.50514 9.02355C4.06569 7.42393 5.06652 6.01508 6.39244 4.95917Z" stroke="#939393" stroke-width="2" stroke-linecap="round" stroke-linejoin="round"/>
<path d="M15 8.99996H20.488C20.0391 7.73458 19.3135 6.5853 18.3641 5.6359C17.4147 4.6865 16.2654 3.96089 15 3.51196V8.99996Z" stroke="#939393" stroke-width="2" stroke-linecap="round" stroke-linejoin="round"/>
</svg>
