<svg width="24" height="24" viewBox="0 0 24 24" fill="none" xmlns="http://www.w3.org/2000/svg">
<path d="M7 16C6.01501 16.0011 5.06425 15.6388 4.32987 14.9823C3.59548 14.3259 3.12911 13.4216 3.02011 12.4427C2.91111 11.4638 3.16713 10.479 3.73913 9.67714C4.31114 8.87526 5.1589 8.31263 6.12 8.09703C5.84192 6.80012 6.09043 5.44586 6.81085 4.33218C7.53127 3.21849 8.66459 2.43661 9.9615 2.15853C11.2584 1.88045 12.6127 2.12895 13.7264 2.84937C14.84 3.56979 15.6219 4.70312 15.9 6.00003H16C17.24 5.99878 18.4361 6.45831 19.3563 7.2894C20.2765 8.12049 20.8551 9.26386 20.9797 10.4975C21.1043 11.7312 20.7661 12.9672 20.0307 13.9655C19.2953 14.9638 18.2152 15.6533 17 15.9M15 13L12 10M12 10L9 13M12 10V22" stroke="#939393" stroke-width="2" stroke-linecap="round" stroke-linejoin="round"/>
</svg>
