<svg width="24" height="24" viewBox="0 0 24 24" fill="none" xmlns="http://www.w3.org/2000/svg">
<path d="M12 11.0001C12 14.5171 10.991 17.7991 9.247 20.5711M5.807 18.5311L5.861 18.4411C7.26352 16.213 8.00523 13.6328 8 11.0001C8 9.93922 8.42143 8.92181 9.17157 8.17166C9.92172 7.42152 10.9391 7.00009 12 7.00009C13.0609 7.00009 14.0783 7.42152 14.8284 8.17166C15.5786 8.92181 16 9.93922 16 11.0001C16 12.0171 15.93 13.0191 15.797 14.0001M13.679 20.8441C14.2962 19.6126 14.7958 18.3255 15.171 17.0001M19.01 18.1321C19.655 15.8661 20 13.4731 20 11.0001C20.0003 9.59564 19.6309 8.21586 18.9289 6.99946C18.2269 5.78305 17.217 4.7729 16.0008 4.07054C14.7846 3.36818 13.4049 2.99837 12.0004 2.99829C10.596 2.99821 9.21629 3.36787 8 4.07009M3 15.3641C3.64 14.0451 4 12.5641 4 11.0001C4 9.54309 4.39 8.17709 5.07 7.00009" stroke="#939393" stroke-width="2" stroke-linecap="round" stroke-linejoin="round"/>
</svg>
