<svg width="24" height="24" viewBox="0 0 24 24" fill="none" xmlns="http://www.w3.org/2000/svg">
<path d="M3.3425 7.77795C3.56865 7.23198 3.90012 6.7359 4.31799 6.31804C4.73586 5.90017 5.23194 5.5687 5.7779 5.34255C6.32387 5.1164 6.90904 5 7.49999 5C8.09095 5 8.67611 5.1164 9.22208 5.34255C9.76805 5.5687 10.2641 5.90017 10.682 6.31804L12 7.63604L13.318 6.31804C14.1619 5.47412 15.3065 5.00001 16.5 5.00001C17.6935 5.00001 18.8381 5.47412 19.682 6.31804C20.5259 7.16196 21 8.30656 21 9.50004C21 10.6935 20.5259 11.8381 19.682 12.682L12 20.364L4.31799 12.682C3.90012 12.2642 3.56865 11.7681 3.3425 11.2221C3.11635 10.6762 2.99995 10.091 2.99995 9.50004C2.99995 8.90909 3.11635 8.32392 3.3425 7.77795Z" stroke="#939393" stroke-width="2" stroke-linecap="round" stroke-linejoin="round"/>
</svg>
