<svg width="24" height="24" viewBox="0 0 24 24" fill="none" xmlns="http://www.w3.org/2000/svg">
<path d="M13.828 10.1719C13.0779 9.42204 12.0607 9.00077 11 9.00077C9.93935 9.00077 8.92211 9.42204 8.172 10.1719L4.172 14.1719C3.78996 14.5409 3.48523 14.9823 3.2756 15.4703C3.06596 15.9583 2.95562 16.4832 2.951 17.0143C2.94639 17.5454 3.04759 18.0722 3.24872 18.5637C3.44984 19.0553 3.74685 19.5019 4.12242 19.8775C4.49799 20.2531 4.9446 20.5501 5.43619 20.7512C5.92777 20.9523 6.45449 21.0535 6.98561 21.0489C7.51673 21.0443 8.04161 20.934 8.52962 20.7243C9.01764 20.5147 9.45902 20.21 9.828 19.8279L10.93 18.7269M10.172 13.8279C10.9221 14.5778 11.9393 14.9991 13 14.9991C14.0607 14.9991 15.0779 14.5778 15.828 13.8279L19.828 9.82792C20.5566 9.07351 20.9598 8.0631 20.9507 7.01431C20.9416 5.96553 20.5209 4.96228 19.7793 4.22065C19.0376 3.47901 18.0344 3.05834 16.9856 3.04922C15.9368 3.04011 14.9264 3.44329 14.172 4.17192L13.072 5.27192" stroke="#939393" stroke-width="2" stroke-linecap="round" stroke-linejoin="round"/>
</svg>
