<svg width="24" height="24" viewBox="0 0 24 24" fill="none" xmlns="http://www.w3.org/2000/svg">
<path d="M3 19.0001V10.0701C2.99995 9.74092 3.08116 9.41682 3.23641 9.12654C3.39166 8.83627 3.61617 8.58881 3.89 8.40611L10.89 3.74011C11.2187 3.52083 11.6049 3.40381 12 3.40381C12.3951 3.40381 12.7813 3.52083 13.11 3.74011L20.11 8.40611C20.3838 8.58881 20.6083 8.83627 20.7636 9.12654C20.9188 9.41682 21 9.74092 21 10.0701V19.0001M3 19.0001C3 19.5305 3.21071 20.0392 3.58579 20.4143C3.96086 20.7894 4.46957 21.0001 5 21.0001H19C19.5304 21.0001 20.0391 20.7894 20.4142 20.4143C20.7893 20.0392 21 19.5305 21 19.0001M3 19.0001L9.75 14.5001M21 19.0001L14.25 14.5001M9.75 14.5001L3 10.0001M9.75 14.5001L10.89 15.2601C11.2187 15.4794 11.6049 15.5964 12 15.5964C12.3951 15.5964 12.7813 15.4794 13.11 15.2601L14.25 14.5001M14.25 14.5001L21 10.0001" stroke="#939393" stroke-width="2" stroke-linecap="round" stroke-linejoin="round"/>
</svg>
