<svg width="24" height="24" viewBox="0 0 24 24" fill="none" xmlns="http://www.w3.org/2000/svg">
<path d="M15.172 6.99992L8.58601 13.5859C8.39498 13.7704 8.24262 13.9911 8.1378 14.2351C8.03298 14.4791 7.97781 14.7416 7.9755 15.0071C7.9732 15.2727 8.0238 15.536 8.12436 15.7818C8.22492 16.0276 8.37343 16.2509 8.56121 16.4387C8.749 16.6265 8.9723 16.775 9.2181 16.8756C9.46389 16.9761 9.72725 17.0267 9.99281 17.0244C10.2584 17.0221 10.5208 16.9669 10.7648 16.8621C11.0088 16.7573 11.2295 16.6049 11.414 16.4139L17.828 9.82792C18.5566 9.07351 18.9598 8.0631 18.9507 7.01431C18.9416 5.96553 18.5209 4.96228 17.7793 4.22065C17.0376 3.47901 16.0344 3.05834 14.9856 3.04922C13.9368 3.04011 12.9264 3.44329 12.172 4.17192L5.757 10.7569C4.63169 11.8822 3.9995 13.4085 3.9995 14.9999C3.9995 16.5914 4.63169 18.1176 5.757 19.2429C6.88232 20.3682 8.40857 21.0004 10 21.0004C11.5914 21.0004 13.1177 20.3682 14.243 19.2429L20.5 12.9999" stroke="#939393" stroke-width="2" stroke-linecap="round" stroke-linejoin="round"/>
</svg>
