<svg width="24" height="24" viewBox="0 0 24 24" fill="none" xmlns="http://www.w3.org/2000/svg">
<path d="M14.121 14.121L19 19M12 12L19 5.00002M12 12L9.12099 14.879M12 12L9.12099 9.12102M9.12099 14.879C8.55833 14.3164 7.79521 14.0003 6.99949 14.0003C6.20377 14.0003 5.44065 14.3164 4.87799 14.879C4.31533 15.4417 3.99924 16.2048 3.99924 17.0005C3.99924 17.7962 4.31533 18.5594 4.87799 19.122C5.44065 19.6847 6.20377 20.0008 6.99949 20.0008C7.79521 20.0008 8.55833 19.6847 9.12099 19.122C9.68365 18.5594 9.99975 17.7962 9.99975 17.0005C9.99975 16.2048 9.68365 15.4417 9.12099 14.879ZM9.12099 9.12102C9.68365 8.55837 9.99975 7.79524 9.99975 6.99952C9.99975 6.2038 9.68365 5.44068 9.12099 4.87802C8.55833 4.31536 7.79521 3.99927 6.99949 3.99927C6.20377 3.99927 5.44065 4.31536 4.87799 4.87802C4.31533 5.44068 3.99924 6.2038 3.99924 6.99952C3.99924 7.79524 4.31533 8.55837 4.87799 9.12102C5.44065 9.68368 6.20377 9.99978 6.99949 9.99978C7.79521 9.99978 8.55833 9.68368 9.12099 9.12102Z" stroke="#939393" stroke-width="2" stroke-linecap="round" stroke-linejoin="round"/>
</svg>
