<svg width="24" height="24" viewBox="0 0 24 24" fill="none" xmlns="http://www.w3.org/2000/svg">
<path d="M8.684 13.3421C8.886 12.9381 9 12.4821 9 12.0001C9 11.5181 8.886 11.0621 8.684 10.6581M8.684 13.3421C8.3817 13.9465 7.8842 14.4311 7.2721 14.7175C6.65999 15.0038 5.96913 15.0751 5.31144 14.9198C4.65376 14.7645 4.06777 14.3917 3.64841 13.8618C3.22906 13.3319 3.0009 12.6759 3.0009 12.0001C3.0009 11.3243 3.22906 10.6684 3.64841 10.1384C4.06777 9.60853 4.65376 9.23572 5.31144 9.08041C5.96913 8.92511 6.65999 8.9964 7.2721 9.28275C7.8842 9.5691 8.3817 10.0537 8.684 10.6581M8.684 13.3421L15.316 16.6581M8.684 10.6581L15.316 7.34211M15.316 16.6581C14.9601 17.37 14.9015 18.194 15.1532 18.9491C15.4049 19.7041 15.9462 20.3282 16.658 20.6841C17.3698 21.04 18.1939 21.0986 18.9489 20.8469C19.704 20.5953 20.3281 20.054 20.684 19.3421C21.0399 18.6303 21.0985 17.8062 20.8468 17.0512C20.5951 16.2962 20.0538 15.672 19.342 15.3161C18.9895 15.1399 18.6058 15.0348 18.2127 15.0069C17.8196 14.9789 17.4249 15.0287 17.0511 15.1533C16.296 15.405 15.6719 15.9463 15.316 16.6581ZM15.316 7.34211C15.4922 7.69452 15.7362 8.00876 16.0338 8.26689C16.3315 8.52503 16.6771 8.722 17.0509 8.84657C17.4247 8.97114 17.8194 9.02087 18.2124 8.99291C18.6054 8.96495 18.9891 8.85985 19.3415 8.68361C19.6939 8.50738 20.0081 8.26346 20.2663 7.96578C20.5244 7.66811 20.7214 7.3225 20.846 6.9487C20.9705 6.5749 21.0203 6.18022 20.9923 5.7872C20.9643 5.39418 20.8592 5.01052 20.683 4.65811C20.3271 3.94641 19.703 3.40524 18.9481 3.15366C18.1932 2.90208 17.3692 2.96069 16.6575 3.31661C15.9458 3.67253 15.4046 4.2966 15.153 5.05153C14.9015 5.80646 14.9601 6.63041 15.316 7.34211Z" stroke="#939393" stroke-width="2" stroke-linecap="round" stroke-linejoin="round"/>
</svg>
