<svg width="24" height="24" viewBox="0 0 24 24" fill="none" xmlns="http://www.w3.org/2000/svg">
<path d="M12.951 2.92708C12.652 2.00608 11.349 2.00608 11.049 2.92708L9.53 7.60108C9.46458 7.80173 9.33735 7.97654 9.16653 8.10048C8.99571 8.22442 8.79005 8.29113 8.579 8.29108H3.665C2.697 8.29108 2.293 9.53108 3.077 10.1011L7.053 12.9891C7.2238 13.1132 7.3509 13.2883 7.41611 13.4891C7.48132 13.6899 7.48128 13.9063 7.416 14.1071L5.898 18.7811C5.598 19.7021 6.653 20.4691 7.436 19.8991L11.412 17.0111C11.5829 16.8869 11.7887 16.8199 12 16.8199C12.2113 16.8199 12.4171 16.8869 12.588 17.0111L16.564 19.8991C17.347 20.4691 18.402 19.7031 18.102 18.7811L16.584 14.1071C16.5187 13.9063 16.5187 13.6899 16.5839 13.4891C16.6491 13.2883 16.7762 13.1132 16.947 12.9891L20.923 10.1011C21.706 9.53108 21.304 8.29108 20.335 8.29108H15.42C15.2091 8.29092 15.0037 8.22411 14.8331 8.10018C14.6625 7.97626 14.5354 7.80157 14.47 7.60108L12.951 2.92708Z" stroke="#939393" stroke-width="2" stroke-linecap="round" stroke-linejoin="round"/>
</svg>
